REM MD5 3923433b7e3de27a29eb6e0ff0b1fb36
FILE "Flying Squadron (Europe).bin" BINARY
  TRACK 01 MODE2/2352
    INDEX 01 00:00:00
  TRACK 02 AUDIO
    INDEX 00 09:29:20
    INDEX 01 09:31:20
  TRACK 03 AUDIO
    INDEX 00 11:33:21
    INDEX 01 11:35:21
REM LEADOUT 19:22:69
